<?xml version="1.0" encoding="UTF-8"?><svg id="Capa_2" xmlns="http://www.w3.org/2000/svg" xmlns:xlink="http://www.w3.org/1999/xlink" viewBox="0 0 1701.91 379.73"><defs><style>.cls-1{fill:none;}.cls-2{clip-path:url(#clippath);}.cls-3{clip-path:url(#clippath-1);}.cls-4{clip-path:url(#clippath-4);}.cls-5{clip-path:url(#clippath-3);}.cls-6{clip-path:url(#clippath-2);}.cls-7{clip-path:url(#clippath-7);}.cls-8{clip-path:url(#clippath-6);}.cls-9{clip-path:url(#clippath-5);}.cls-10{fill:url(#Degradado_sin_nombre_67);}.cls-11{fill:url(#Degradado_sin_nombre_67-2);}.cls-12{fill:url(#Degradado_sin_nombre_67-3);}</style><clipPath id="clippath"><path class="cls-1" d="M1065.23,193.48c-.06-11.76-.98-23.62-2.79-35.23-8.16-52.31-47.64-88.43-100.5-92.92-19.66-1.67-39.23-1.38-58.75,1.14-25.31,3.27-49.41,10.29-71.23,23.95-9.3,5.82-17.93,12.46-25.33,20.78,13.55,20.6,26.88,40.86,40.12,60.98,.75-.14,1.12-.12,1.37-.28,1.53-1,3.07-2,4.55-3.08,27.42-19.82,57.76-28.44,91.63-24.69,23.59,2.61,37.86,18.69,35.24,40.96-.45,.09-.63,.18-.78,.15-2.57-.64-5.13-1.32-7.7-1.93-20.93-4.93-42.12-5.51-63.48-4.1-22.1,1.46-43.41,6.02-63.64,15.15-33.61,15.16-54.53,39.49-56.34,77.73-1.86,39.39,12.3,70.58,47.05,90.84,20.57,11.99,43.3,15.57,66.78,15,28.65-.7,54.62-8.87,76.53-28.03,.41-.36,1.05-.44,2.19-.9v24.99h85.21c0-2.28,0-4.24,0-6.2,0-58.11,.15-116.21-.13-174.32Zm-93.7,88.56c-15.51,15.19-34.15,22.5-56.09,23.65-8.19-1.84-16.64-2.93-24.5-5.7-9.01-3.18-14.87-9.83-15.42-20.06-.56-10.47,4.31-17.81,13.21-22.73,9.69-5.36,20.42-6.88,31.2-7.67,18.87-1.39,37.53-.27,55.75,5.48,3.15,.99,4.07,2.39,4.47,5.8,1.04,8.88-2.65,15.39-8.62,21.23Z"/></clipPath><linearGradient id="Degradado_sin_nombre_67" x1="90.03" y1="-351.58" x2="1806.97" y2="639.7" gradientTransform="matrix(1, 0, 0, 1, 0, 0)" gradientUnits="userSpaceOnUse"><stop offset="0" stop-color="#e09452"/><stop offset=".18" stop-color="#d4625c"/><stop offset=".23" stop-color="#c86075"/><stop offset=".31" stop-color="#ba5f94"/><stop offset=".35" stop-color="#b55fa0"/><stop offset=".69" stop-color="#6a67ab"/><stop offset="1" stop-color="#6f8ac5"/></linearGradient><clipPath id="clippath-1"><path class="cls-1" d="M274.79,156.78c-7.56-45.84-38.31-78.11-83.45-88.55-21.51-4.97-43.22-4.59-64.99-2.83-25.77,2.08-50.5,8.04-73.47,20.21-12.51,6.63-23.81,14.95-33.66,25.47,13.6,20.66,26.99,41.01,40.41,61.4,6.54-4.15,12.5-8.07,18.59-11.77,26.15-15.86,54.46-20.7,84.38-15.42,20.77,3.66,32.9,20.46,29.61,39.8-.46,.06-.96,.25-1.42,.18-13.42-2.11-26.76-5.27-40.25-6.18-31.71-2.14-62.77,1.6-92.18,14.52-19.23,8.44-36.12,19.92-46.96,38.64C1.71,248.98-.86,267.23,.23,286.13c1.59,27.61,12.43,50.7,34.32,68.16,18.03,14.39,38.93,20.98,61.62,23.06,27.19,2.49,53.08-1.52,77.04-15.05,6.69-3.78,12.79-8.6,19.6-13.23v24.98h85.08v-6.32c0-58.75,.16-117.51-.13-176.26-.06-11.58-1.07-23.27-2.95-34.7Zm-91.2,125.91c-21.35,19.97-46.63,25.96-74.8,19.35-12.85-3.02-20.47-11.95-20.72-22.51-.26-11.31,5.57-18.75,15.46-23.42,10.11-4.78,23.7-7.01,42.46-7.01,14.57-.23,28.82,1.73,42.76,6.05,3.02,.93,3.7,2.5,4.16,5.58,1.39,9.41-3.12,16.17-9.32,21.96Z"/></clipPath><linearGradient id="Degradado_sin_nombre_67-2" x1="3.53" y1="-254.07" x2="1720.47" y2="737.21" xlink:href="#Degradado_sin_nombre_67"/><clipPath id="clippath-2"><path class="cls-1" d="M530.21,279.38c-.72,.08-.91,.05-1.03,.13-1.23,.85-2.47,1.69-3.67,2.58-13.32,9.74-28.07,15.55-44.64,16.8-16.13,1.21-27.29-6.28-30.8-22.02-1.65-7.41-2.69-15.11-2.78-22.69-.38-33.45-.31-66.91-.39-100.37,0-1.12,.19-2.24,.34-3.95h92.18V74.24h-92.65V.04h-84.72V74.59h-48.7v75.5h48.69v6.61c0,38.29-.12,76.58,.09,114.87,.05,9.11,.55,18.32,2.01,27.3,5.26,32.42,22.57,56.07,53,69.19,27.87,12.02,56.88,12.49,86.14,6.35,22.69-4.76,42.27-15.62,58.79-31.92,1.63-1.61,3.47-2.81,1.72-5.77-11.26-19.01-22.35-38.13-33.56-57.33Z"/></clipPath><linearGradient id="Degradado_sin_nombre_67-3" x1="3.53" y1="-254.07" x2="1720.47" y2="737.21" xlink:href="#Degradado_sin_nombre_67"/><clipPath id="clippath-3"><path class="cls-1" d="M1311.26,283.17c-13.05,9.23-27.45,14.66-43.48,15.7-16.19,1.05-26.75-6.13-30.21-21.92-1.83-8.38-2.87-17.08-2.96-25.66-.34-31.96-.14-63.92-.13-95.89,0-1.62,.13-3.25,.23-5.36h92.45V74.4h-92.89V0h-84.88V74.44h-48.42v75.75h48.37v6.54c0,38.46-.15,76.91,.11,115.36,.06,9.6,.7,19.32,2.37,28.76,5.46,30.75,21.95,53.85,50.88,66.28,37.36,16.05,75.12,14.69,112.38-1,14.4-6.06,26.65-15.38,37.38-26.85-11.8-20.23-23.41-40.15-35.17-60.32-2.26,1.58-4.16,2.88-6.03,4.21Z"/></clipPath><clipPath id="clippath-4"><path class="cls-1" d="M1696.67,175.94c-3.39-15.15-9.27-29.36-17.73-42.8-25.68,14.82-51.11,29.49-76.65,44.23,7.47,14.77,9.79,30.1,9.08,45.9-.95,21.34-7.55,40.39-23.78,55.23-15.02,13.74-33.24,19.08-53.06,19.59-16.61,.42-32.53-2.8-46.42-12.45-28.57-19.85-37.03-48.25-33.11-81.26,1.1-9.24,4.3-18.23,6.65-27.81-24.64-14.21-49.93-28.8-75.22-43.39-.58,.69-.94,1.04-1.19,1.45-.69,1.14-1.35,2.29-1.97,3.46-19.6,36.56-24.06,75.47-15.89,115.57,11.13,54.62,44.67,91.53,95.3,112.79,36.17,15.19,74.22,16.44,112.23,8.37,52.87-11.23,91.72-41.33,113.86-90.91,15.51-34.72,16.12-71.21,7.9-107.96Z"/></clipPath><clipPath id="clippath-5"><path class="cls-1" d="M753.38,78.04c-20.74-15.64-44.17-16.19-67.98-9.87-8.99,2.38-17.18,7.78-25.7,11.78v-9.16h-84.49V374.05h84.59v-6.14c0-61.1-.14-122.2,.08-183.3,.08-20.98,15.92-42.8,45.49-36.86,7.3,1.47,13.14,4.95,17.72,11.19,11.88-18.62,23.41-36.7,34.94-54.78,9.58-15.03,9.76-15.26-4.65-26.13Z"/></clipPath><clipPath id="clippath-6"><path class="cls-1" d="M1568.89,150.18c5.99,.07,11.98,.08,17.96,0,10.06-.14,18.19-7.8,18.39-17.9,.27-13.13,.23-26.27,0-39.4-.15-9.06-6.41-16.5-15.37-17.53-7.38-.85-14.97-1.03-22.36-.35-11.02,1.01-17.04,8.42-17.07,19.53-.02,5.98,0,11.97,0,17.95,0,6.32-.03,12.63,0,18.95,.07,10.75,7.79,18.62,18.43,18.74Z"/></clipPath><clipPath id="clippath-7"><path class="cls-1" d="M1479.33,150.19c5.32,.03,10.65,.02,15.97,0,11.69-.04,19.26-7.53,19.41-19.29,.08-6.15,.01-12.3,.01-18.45,0-6.32,0-12.63,0-18.95,0-.33,0-.67-.02-1-.46-8.9-6.28-16.12-15.14-17.11-7.54-.85-15.3-1.01-22.85-.3-10.39,.97-16.71,8.35-16.89,18.81-.21,12.46-.27,24.94,.02,37.4,.26,11.42,8.17,18.83,19.5,18.88Z"/></clipPath></defs><g id="Capa_1-2"><g class="cls-2"><rect class="cls-10" x=".62" y="-196.72" width="1895.76" height="681.55"/></g><g class="cls-3"><rect class="cls-11" x="-85.88" y="-99.2" width="1895.76" height="681.55"/></g><g class="cls-6"><rect class="cls-12" x="-85.88" y="-99.2" width="1895.76" height="681.55"/></g><g class="cls-5"><rect class="cls-10" x=".62" y="-196.72" width="1895.76" height="681.55"/></g><g class="cls-4"><rect class="cls-10" x=".62" y="-196.72" width="1895.76" height="681.55"/></g><g class="cls-9"><rect class="cls-10" x=".62" y="-196.72" width="1895.76" height="681.55"/></g><g class="cls-8"><rect class="cls-10" x=".62" y="-196.72" width="1895.76" height="681.55"/></g><g class="cls-7"><rect class="cls-10" x=".62" y="-196.72" width="1895.76" height="681.55"/></g></g></svg>