<?xml version="1.0" encoding="UTF-8"?><svg id="Capa_2" xmlns="http://www.w3.org/2000/svg" viewBox="0 0 722.15 216.75"><defs><style>.cls-1{fill:#2e497d;}</style></defs><g id="Capa_1-2"><g><path class="cls-1" d="M371.28,27.22c4.04,0,8.08,.11,12.12-.03,3.7-.13,6.08,1.35,7.79,4.67,8.33,16.12,16.8,32.17,25.22,48.24,10.85,20.69,21.7,41.38,32.56,62.07,.8,1.52,1.59,3.05,2.4,4.57,.78,1.45,1.64,2.78,3.57,2.78,1.91,0,2.83-1.25,3.6-2.73,4.33-8.24,8.67-16.48,12.99-24.73,15.77-30.09,31.55-60.19,47.28-90.3,1.63-3.13,3.93-4.64,7.52-4.58,8.43,.12,16.87,.06,25.31,.07,.3,0,.59,0,.89,.01,3.7,.23,4.69,1.84,2.97,5.12-4.83,9.18-9.73,18.33-14.61,27.48-8.87,16.64-17.75,33.27-26.63,49.9-9.97,18.67-19.95,37.33-29.91,56-8.24,15.43-16.46,30.87-24.69,46.3-.45,.84-.86,1.7-1.36,2.5-1.84,2.93-4.92,2.92-6.66-.07-1.52-2.61-2.89-5.31-4.31-7.98-10.47-19.62-20.94-39.23-31.41-58.85-11.31-21.19-22.61-42.37-33.92-63.56-8.93-16.74-17.87-33.48-26.8-50.22-.53-.99-1.11-1.96-1.39-3.07-.44-1.72,.13-2.75,1.82-3.25,.92-.27,1.87-.31,2.82-.31,4.28,0,8.56,0,12.83,0v-.04Z"/><path class="cls-1" d="M704.56,189.44c-4.22,0-8.44-.08-12.65,.03-3.28,.08-5.49-1.23-7.01-4.15-7.55-14.52-15.17-29-22.77-43.49-10.6-20.21-21.21-40.42-31.82-60.64-1.85-3.52-3.64-7.06-5.52-10.56-.86-1.6-1.59-3.44-3.86-3.48-2.34-.04-3.19,1.75-4.08,3.45-5.26,10.03-10.51,20.06-15.77,30.09-13.1,25-26.19,50-39.29,75-1.65,3.15-3.37,6.27-4.94,9.46-1.51,3.07-3.85,4.39-7.28,4.34-8.61-.12-17.23-.06-25.84-.1-4.27-.02-5.29-1.7-3.29-5.45,5.69-10.68,11.4-21.34,17.1-32.01,10.7-20.04,21.39-40.07,32.08-60.11,15.8-29.61,31.6-59.22,47.39-88.84,.85-1.6,1.9-2.98,3.87-2.96,1.89,.02,2.9,1.38,3.72,2.91,17.69,33.17,35.39,66.35,53.09,99.52,14.41,27,28.82,53.99,43.24,80.98,2.32,4.34,1.37,5.97-3.55,5.97-4.28,0-8.55,0-12.83,0v.06Z"/><path class="cls-1" d="M160.15,150.15c-1.69-11.79-7.26-21.45-16.69-28.82-3.48-2.72-7.4-4.68-11.65-6.61,3.93-2.49,7.5-4.94,10.3-8.32,7.95-9.59,10.98-20.75,10.09-33-1.3-17.89-10.08-31.03-25.85-39.5-9.23-4.95-19.25-6.52-29.58-6.53-24.11-.03-48.21-.06-72.32-.08-6.29,0-12.59-.02-18.88,.02C1,27.36,.03,28.38,.02,32.9c0,.36,0,.71,0,1.07C.02,92.71,.02,151.44,.02,210.18c0,.77-.05,1.55,0,2.32,.16,2.87,1.19,3.93,4.02,4.19,.53,.05,1.07,.05,1.6,.05,30.24,0,60.47,.04,90.71-.03,11.05-.03,21.88-1.63,32.26-5.62,13.35-5.14,23.18-13.92,28.39-27.45,4.18-10.85,4.78-22.09,3.15-33.47ZM36.65,54.84c9.67,0,19.34,0,29.01,0v.14c9.62,0,19.25-.11,28.87,.04,5.21,.08,10.24,1.31,14.86,3.82,7.15,3.9,11.02,10.01,11.43,18.08,.44,8.83-1.64,16.78-9.31,22.26-4.07,2.91-8.8,4.02-13.68,4.6-2.78,.33-5.56,.4-8.36,.4-17.64-.03-35.29-.03-52.93-.05-4.03,0-4.97-.91-4.98-4.89-.02-13.12-.01-26.25,0-39.37,0-4.02,1.08-5.04,5.09-5.04Zm92.18,113.72c-1.87,9.67-7.63,15.64-17.03,18.3-7.52,2.13-15.22,2.34-22.95,2.34-7.01,0-14.02,0-21.02,0h0c-10.09-.01-20.19,0-30.28-.01-5.3,0-5.99-.7-5.99-5.91,0-15.38,0-30.76,0-46.14,0-4.27,.95-5.3,5.2-5.31,15.19-.03,30.38-.02,45.57-.02,8.01,0,16.03-.06,23.97,1.25,2.7,.44,5.33,1.14,7.9,2.08,8.4,3.07,13.26,9.11,14.74,17.85,.88,5.18,.9,10.38-.11,15.58Z"/><path class="cls-1" d="M350.79,148.43c-1.91-10.91-7.31-19.81-15.93-26.75-3.58-2.89-7.64-4.96-12.09-6.92,.74-.48,1.24-.81,1.73-1.12,4.76-3.05,8.79-6.83,11.82-11.65,5.12-8.14,7.33-17.05,6.99-26.6-.51-14.45-5.93-26.58-17.25-35.85-10.43-8.54-22.63-12.12-35.85-12.2-31.07-.18-62.14-.1-93.2-.12-5.13,0-5.98,.88-5.98,6.04,0,59.14,0,118.29,0,177.43,0,5.19,.86,6.05,6.14,6.05,30.04,0,60.07,.05,90.11-.03,10.32-.03,20.45-1.47,30.26-4.89,14.79-5.16,25.59-14.51,30.9-29.5,3.91-11.04,4.35-22.42,2.34-33.88ZM222.55,58.86c.29-2.95,1.35-3.99,4.34-4.02,4.09-.04,8.19,.03,12.28,.04,5.82,0,11.64,0,17.47,0v.1c9.62,0,19.25-.22,28.87,.07,7.23,.22,14.1,2.05,19.61,7.2,5.67,5.29,7.37,12.01,6.67,19.46-.6,6.38-2.69,12.14-7.84,16.39-4.54,3.74-9.93,5.22-15.63,5.71-9.54,.82-19.11,.28-28.67,.35-10.69,.08-21.38,0-32.07-.03-.77,0-1.54-.04-2.3-.16-1.54-.25-2.43-1.16-2.58-2.73-.08-.83-.17-1.65-.17-2.48-.01-12.89,0-25.77,0-38.66,0-.42,0-.83,.04-1.25Zm96.36,113.05c-2.45,7.98-8.1,12.6-15.89,14.88-6.67,1.95-13.54,2.39-20.44,2.39-17.92,.01-35.85,0-53.77,0-5.69,0-6.39-.69-6.39-6.3,0-14.97,0-29.93,0-44.9,0-.53-.01-1.07,0-1.6,.12-3.23,1.21-4.45,4.42-4.52,5.34-.12,10.68-.13,16.02-.15,5.52-.02,11.05,0,17.51,0,9.8,.15,20.55-.05,31.28,.64,4.76,.31,9.42,1.23,13.88,2.93,7.62,2.92,12.41,8.37,14.06,16.39,1.4,6.78,1.35,13.57-.69,20.24Z"/></g></g></svg>