<?xml version="1.0" encoding="UTF-8"?><svg id="Capa_2" xmlns="http://www.w3.org/2000/svg" viewBox="0 0 1196.51 304.68"><defs><style>.cls-1{fill:#303e7c;}.cls-2{fill:#199bda;}.cls-3{fill:#189bda;}.cls-4{fill:#292f62;}</style></defs><g id="Capa_1-2"><g><path class="cls-1" d="M65.81,271.19c-18.23-.02-36.46,0-54.69-.06-9.53-.03-12.22-3.16-10.74-12.6C10.81,192.2,21.28,125.89,31.74,59.57c2.49-15.78,4.85-31.58,7.6-47.31C40.72,4.36,45.63,.2,53.62,.29c37.73,.39,75.5-1.47,113.19,1.12,11.72,.8,23.2,3.56,34.01,8.6,23.01,10.71,35.74,34.18,32.44,60.01-.35,2.75-.51,5.53-.76,8.29-.71,.35-1.45,.45-2.22,.32-18.7-7.24-38.15-9.24-58.07-8.88-19.29,.36-38.59,.03-57.88,.09-11.77,.04-14.86,2.58-16.67,14.03-4.4,27.88-8.82,55.76-13.11,83.66-.36,2.33-.6,4.67-.33,7.03-6.45,28.96-9.75,58.44-14.54,87.68-.53,3.24-.33,6.95-3.88,8.96Z"/><path class="cls-3" d="M65.81,271.19c4.25-20.03,6.35-40.4,10.04-60.52,2.22-12.09,2.09-24.7,7.5-36.13,2.43-6.19,7.97-6.6,13.33-6.73,11.56-.28,23.14,.3,34.69-.18,17.71-.74,34.85-4.24,50.59-12.86,23.4-12.81,36.64-33.31,44.11-58.19,1.82-6.08,2.03-12.65,5.51-18.22,.31-.07,.62-.09,.94-.05,21.51,12.2,26.39,32.01,24.35,54.49-1.72,18.98-6.9,37.03-18.07,52.86-15.65,22.17-38.31,31.39-64.38,33.86-7.04,.67-14.13,.7-21.21,.96-7.83,.28-11.78,3.51-13.06,11.38-3.13,19.21-6.19,38.43-9.09,57.68-1.85,12.26-4.82,15.05-17.04,15.06-14.17,.01-28.33,.06-42.5-.02-7.48-.04-9.66-2.43-8.85-9.88,.86-7.85,2.08-15.66,3.14-23.49Z"/><path class="cls-1" d="M738.82,208.97c14.18-20.87,27.67-40.42,40.77-60.23,3.48-5.26,7.52-7.59,13.8-7.32,8.36,.36,16.74,.12,25.11,.08,2.92-.01,5.6,.28,7.09,3.28,1.38,2.78,0,4.92-1.5,7.09-34.01,49.14-68.02,98.28-101.97,147.46-2.56,3.71-5.73,5.42-10.25,5.34-9.01-.16-18.03-.05-27.05-.04-2.81,0-5.75,.2-7.3-2.84-1.65-3.23,.17-5.68,1.95-8.19,9.31-13.09,18.48-26.29,27.91-39.29,2.13-2.94,2.44-5.37,1.25-8.8-10.61-30.73-21.05-61.53-31.47-92.32-3.19-9.43-1.58-11.63,8.24-11.65,7.51-.02,15.03-.02,22.54,0,9.08,.03,10.99,1.44,13.66,10.3,5.3,17.61,10.56,35.24,15.84,52.87,.29,.97,.62,1.92,1.38,4.29Z"/><path class="cls-2" d="M1176.78,81.13c3.86,0,7.73-.07,11.59,.02,7.16,.16,8.91,1.91,7.87,9.02-2.7,18.41-5.67,36.77-8.56,55.15-5.37,34.22-10.83,68.43-16.1,102.67-1.99,12.93-3.32,14.31-16.27,14.31-6.22,0-12.45,.09-18.67-.03-6.35-.12-8.19-2.2-7.22-8.38,4.82-30.85,9.74-61.68,14.6-92.52,3.69-23.45,7.4-46.89,10.99-70.35,1.37-9,2.2-9.87,11.46-9.89,3.43,0,6.87,0,10.3,0Z"/><path class="cls-4" d="M231.57,78.36c-7.25,52.09-37.73,83.24-86.58,89.84-15.83,2.14-31.69,1.25-47.55,1.37-5.41,.04-10.18,1.11-14.1,4.98-1.94-1.42-1.45-3.52-1.16-5.31,4.1-25.55,8.31-51.07,12.44-76.62,.68-4.19,1.07-8.42,1.64-12.63,.99-7.35,5.86-11.95,13.35-11.98,27.2-.1,54.42-.73,81.59,.27,13.85,.51,28.05,2.23,40.37,10.08Z"/><path class="cls-1" d="M516.45,120.84c-1.12-19.13-12.57-30.72-30.58-36.17-4.72-1.43-9.54-2.43-14.5-2.77-24.02-1.63-48.06-.38-72.09-.72-10.19-.14-12.45,1.69-14.04,11.71-8.5,53.68-16.92,107.37-25.32,161.06-.98,6.28,.72,8.32,7.02,8.41,9.01,.12,18.03,.1,27.05,.01,7.75-.08,10.2-2.3,11.44-10.07,2.12-13.31,4.22-26.63,6.34-39.94,1.25-7.83,3.99-10.26,11.95-10.4,4.72-.08,9.44-.02,14.17-.02v-.38c4.93,0,9.9,.36,14.8-.07,15.06-1.3,29.24-5.38,40.59-15.86,18.95-17.49,24.62-40.17,23.18-64.8Zm-48.54,16.64c-.91,17.97-9.09,26.46-27.02,27.89-2.98,.24-6,.03-9,.03q-12.78,.29-10.82-12.36c1.53-9.72,3.25-19.4,4.64-29.14,.64-4.45,2.87-6.36,7.29-6.23,6.85,.21,13.75-.4,20.52,1.05,10.31,2.2,14.91,8.24,14.38,18.76Z"/><path class="cls-2" d="M942.92,82.98c-15.9-3.26-32.08-1.35-45.72-1.84-13.35,0-24.29-.07-35.24,.02-7.86,.06-10.8,2.61-12.03,10.41-8.52,54.07-17.01,108.14-25.5,162.22-.97,6.18,.79,8.4,7.02,8.48,9.01,.12,18.02,.05,27.04,.03,9.16-.01,10.11-.84,11.54-9.93,2.09-13.31,4.09-26.63,6.29-39.92,1.37-8.29,4.02-10.44,12.44-10.57,9.22-.14,18.47,.12,27.67-.35,29.77-1.52,51.29-17.87,60.2-45.83,1.94-6.08,3.23-12.44,4.14-18.77,4.3-29.61-8.55-47.95-37.85-53.96Zm-38.49,82.51c-2.56,.15-5.13,.02-7.7,.02q-12.97,.2-11.07-12.68c1.38-9.28,2.89-18.54,4.2-27.83,.7-4.97,2.85-7.7,8.37-7.35,7.24,.45,14.56-.46,21.7,1.48,7.97,2.17,11.93,6.94,12.41,15.02,1.17,19.46-8.39,30.22-27.91,31.34Z"/><path class="cls-1" d="M652.44,141.54c-6.22-.11-12.45-.03-18.68-.03q-13.35,0-17.7,12.13c-6.03-8.87-14.43-12.27-23.8-13.79-42.04-6.82-77.21,18.84-84.12,61.77-3.41,21.17,.57,40.84,18.65,54.15,17.99,13.24,38.12,12.1,58.18,3.86,5.9-2.42,10.64-6.72,16.26-10.22,0,1.43,.06,2.29,0,3.13-.71,8.89,.09,9.81,8.78,9.85,7.51,.03,15.03,.08,22.54-.02,7.01-.1,9.87-2.46,10.94-9.18,5.49-34.44,10.94-68.89,16.34-103.34,.93-5.97-1.08-8.18-7.38-8.29Zm-85.91,89.34c-9.87-2.92-15.31-9.84-16.66-19.89-3.12-23.31,19.66-43.77,42.6-38.32,12.15,2.88,19.11,11.93,19.02,24.71-.17,23.17-22.76,40.07-44.96,33.51Z"/><path class="cls-2" d="M1114.17,141.5c-7.72-.02-15.45,.14-23.17-.05-5.08-.13-8.2,1.57-8.86,6.98-.18,1.49,.21,3.41-1.8,4.85-3.02-4.28-6.74-7.77-11.55-9.81-11.36-4.81-23.31-6.11-35.34-4.2-39.45,6.28-66.31,42.7-61.23,82.47,3.67,28.69,27.07,46.64,55.9,43.47,14.11-1.55,26.42-6.69,37.95-16.63-.11,2.36-.08,3.21-.2,4.04-1.21,8.01,.09,9.62,8.06,9.68,6.87,.05,13.73,.02,20.6,0,10.5-.02,12.41-1.79,14.01-12.38,1.85-12.26,3.85-24.5,5.79-36.75,3.21-20.28,6.48-40.54,9.59-60.83,1.43-9.33-.04-10.82-9.73-10.85Zm-83.48,89.3c-10.68-3.25-16.56-11.88-16.34-24,.39-21.53,18.43-37.23,39.85-34.68,13.15,1.56,21.94,11.58,21.94,24.99,0,23.32-23.14,40.48-45.44,33.7Z"/></g></g></svg>