<?xml version="1.0" encoding="UTF-8"?><svg id="Capa_2" xmlns="http://www.w3.org/2000/svg" viewBox="0 0 375.13 356.32"><defs><style>.cls-1{fill:#ce363a;}</style></defs><g id="Capa_1-2"><path class="cls-1" d="M189.97,0c.18,.52,.31,.83,.38,1.14,1.87,8.55,5.1,16.55,9.5,24.12,19.14,32.98,38.2,66,57.32,98.99,4.81,8.31,8.27,17.11,10.12,26.54,.7,3.55,1.08,7.14,1.37,10.74,.03,.34,.06,.69,.09,1,.46,.57,1.09,.63,1.69,.79,9.79,2.64,19.41,5.78,28.81,9.58,12.59,5.09,24.64,11.21,35.83,18.94,8.5,5.87,16.3,12.53,22.99,20.43,5.75,6.79,10.41,14.23,13.48,22.61,2.86,7.81,4.03,15.87,3.41,24.16-.6,7.99-2.88,15.54-6.5,22.68-3.71,7.31-8.56,13.8-14.21,19.71-7.93,8.29-17.01,15.12-26.8,21.05-12.22,7.41-25.2,13.18-38.68,17.87-11.75,4.08-23.73,7.28-35.93,9.7-6.67,1.33-13.36,2.53-20.12,3.32-5.86,.69-11.72,1.44-17.6,1.92-7.96,.65-15.94,1.06-23.94,1.01-4.45-.03-8.89,.04-13.34-.09-4.79-.14-9.58-.41-14.36-.72-3.95-.25-7.9-.58-11.83-.97-3.66-.37-7.32-.79-10.96-1.33-4.73-.7-9.46-1.49-14.17-2.34-15.87-2.88-31.39-7.08-46.48-12.79-13.15-4.98-25.76-11.07-37.52-18.82-8.91-5.88-17.14-12.57-24.22-20.6-5.32-6.02-9.81-12.59-13.09-19.96C1.61,270.57-.22,262.08,.02,253.19c.2-7.37,1.83-14.44,4.7-21.23,3.06-7.23,7.29-13.73,12.36-19.7,5.92-6.98,12.73-12.99,20.13-18.35,9.26-6.71,19.19-12.24,29.58-16.96,12.28-5.59,24.99-9.97,38.04-13.39,.33-.09,.67-.12,1.01-.17,.06,0,.13,.03,.24,.07,.27,1.07,.1,2.19,.11,3.29,.03,12.14,2.6,23.7,7.81,34.67,1.04,2.19,2.18,4.35,3.39,6.45,19.26,33.47,38.53,66.94,57.81,100.39,4.29,7.45,7.55,15.3,9.42,23.72,.09,.4,.26,.78,.46,1.35,.33-.35,.59-.55,.75-.81,6.15-9.93,10.18-20.63,11.84-32.22,.82-5.74,1.05-11.49,.63-17.25-.9-12.52-4.46-24.27-10.76-35.15-11.42-19.72-22.85-39.42-34.27-59.13-4.04-6.97-8.05-13.96-12.13-20.91-5.51-9.41-9.04-19.51-10.58-30.29-1-6.97-1.05-13.97-.23-20.99,1.42-12.21,5.49-23.47,11.93-33.91,.17-.28,.39-.53,.7-.94,.42,.68,.48,1.3,.61,1.86,1.88,8.04,4.97,15.58,9.1,22.73,23.2,40.18,46.33,80.4,69.57,120.56,4.28,7.4,7.47,15.18,9.35,23.51,.09,.39,.2,.78,.29,1.1,.69,.21,.82-.28,1.02-.6,3.31-5.41,6.08-11.07,8.14-17.08,3.2-9.37,4.72-19,4.41-28.88-.43-13.57-3.96-26.32-10.72-38.12-8.12-14.16-16.3-28.29-24.45-42.42-7.39-12.82-14.76-25.64-22.18-38.44-4.82-8.31-8.21-17.15-9.95-26.59-1.3-7.06-1.69-14.18-1.11-21.37,1.07-13.35,5.22-25.65,12.21-37.03,.17-.28,.39-.52,.73-.96Z"/></g></svg>